<svg id="Ebene_1" data-name="Ebene 1" xmlns="http://www.w3.org/2000/svg" viewBox="0 0 471.0889 242.1011"><path d="M219.231,430.1719c.6455,5.165,1.6137,7.5859,3.8735,10.4912,3.3892,4.1963,9.1992,6.4551,16.1392,6.4551,10.1674,0,16.1391-4.1963,16.1391-11.459a9.3422,9.3422,0,0,0-5.9717-9.1992c-2.582-1.13-9.1992-2.9043-21.9492-5.81-16.7847-3.7119-21.1426-5.165-27.1138-9.0381-11.2978-7.4248-17.5918-19.5283-17.5918-34.0537,0-26.63,21.1421-42.769,55.8414-42.769,13.2343,0,26.7915,3.228,35.1835,8.3925a41.7167,41.7167,0,0,1,15.9781,17.43c1.7754,3.3892,2.9048,6.94,4.519,13.88L253.123,378.85c-.6455-3.8735-1.4521-5.81-3.0664-7.7471-2.582-2.9047-7.101-4.68-12.5883-4.68-8.5537,0-14.3638,3.8735-14.3638,9.8447,0,3.8735,2.582,6.7788,7.4238,8.2314,2.7437.8067,7.5855,1.9366,26.9527,5.9712,26.4682,6.1328,39.2182,20.0127,39.2182,43.4151,0,16.4619-7.1015,29.5341-20.1743,37.4423-8.3921,5.003-23.24,8.2315-38.25,8.2315-15.6548,0-30.3413-3.5508-39.541-9.6836A39.37,39.37,0,0,1,183.24,450.5078c-1.7754-4.0351-2.582-8.3926-3.7119-16.623Z" transform="translate(-179.5283 -292.811)"/><path d="M353.8262,338.34c-.9683,7.1011-1.291,12.75-1.291,25.8228v86.1836c0,12.1045.3227,18.7207,1.291,25.8222H311.5415c.9683-6.9394,1.2915-13.88,1.2915-25.8222V364.1631c0-13.7188-.1616-18.56-1.2915-25.8228Z" transform="translate(-179.5283 -292.811)"/><path d="M500.2061,429.2041c-3.5508,16.1387-7.4239,24.37-15.1709,32.7627-10.49,11.62-26.1456,17.5918-46.1582,17.5918-43.899,0-70.69-27.4365-70.69-72.7881,0-44.8672,26.4683-71.6582,70.8511-71.6582,20.6582,0,37.9277,7.7471,48.9023,21.9492,5.6485,7.4243,8.0694,13.0728,10.49,24.6934l-39.7022,7.2622c-.9687-5.81-2.26-9.0376-5.3262-12.75a20.8739,20.8739,0,0,0-16.3007-8.0693c-18.3985,0-28.4053,13.5571-28.4053,38.4116,0,14.2021,3.5508,25.3379,10.168,31.9551a26.1706,26.1706,0,0,0,17.7529,7.2626,22.9517,22.9517,0,0,0,16.3008-6.1328c4.5185-4.1963,6.2939-8.3925,7.1015-15.9775Z" transform="translate(-179.5283 -292.811)"/><path d="M601.07,476.1689c-2.0986-5.164-4.3574-9.5224-11.62-22.5947l-19.69-35.5058L553.9434,434.207v16.14a217.7936,217.7936,0,0,0,1.291,25.8222H513.7568a212.3412,212.3412,0,0,0,1.2911-25.8222V364.1631a207.26,207.26,0,0,0-1.2911-25.8228h41.4776a204.1419,204.1419,0,0,0-1.291,25.8228v22.5947l25.8232-28.728a122.75,122.75,0,0,0,15.0088-19.69h51.6455c-9.5215,9.522-15.4932,15.4937-17.9141,18.0757L595.26,391.9224l37.6045,58.4243c8.8769,13.7178,11.62,17.7529,17.7529,25.8222Z" transform="translate(-179.5283 -292.811)"/><path d="M196.7979,292.811a47.143,47.143,0,0,0-.32,6.5191v21.1162a56.5232,56.5232,0,0,0,.32,6.519H186.88a46.4229,46.4229,0,0,0,.32-6.519V299.33a44.2936,44.2936,0,0,0-.32-6.5191Z" transform="translate(-179.5283 -292.811)"/><path d="M208.6782,316.687a4.866,4.866,0,0,0,1.04,2.72,4.1813,4.1813,0,0,0,3.48,1.4795,5.3042,5.3042,0,0,0,3.3994-1.0395,3.5926,3.5926,0,0,0,1.28-1.96l8.3584,2.24a12.1652,12.1652,0,0,1-2.7994,4.3193,13.6836,13.6836,0,0,1-9.8784,3.6,14.9641,14.9641,0,0,1-8.7983-2.48c-3.3994-2.4394-5.2393-6.3989-5.2393-11.2378,0-8.2387,5.439-13.7177,13.6377-13.7177,5.6392,0,10.1182,2.7192,11.958,7.2788a19.4151,19.4151,0,0,1,1.48,7.3589c.04.9594.04.9594.08,1.4394Zm8.8784-5.5991c-.44-2.16-1.96-3.3193-4.3593-3.3193a4.5248,4.5248,0,0,0-3.64,1.6,4.3142,4.3142,0,0,0-.8,1.72Z" transform="translate(-179.5283 -292.811)"/><path d="M232.4785,301.09a56.4309,56.4309,0,0,0-.32-5.7993h9.8784a54.4794,54.4794,0,0,0-.32,5.7993v.6a35.2583,35.2583,0,0,0,4.999-.2v7.8384a28.59,28.59,0,0,0-4.999-.24v9.0386c0,1.64.8,2.3193,2.6391,2.3193a4.7517,4.7517,0,0,0,2.48-.6l.48,7.1186a18.36,18.36,0,0,1-5.7988.76c-6.2788,0-9.0386-2.2-9.0386-7.1587v-11.478a26.2009,26.2009,0,0,0-4.7993.24V301.45a27.5775,27.5775,0,0,0,4.7993.24Z" transform="translate(-179.5283 -292.811)"/><path d="M345.2471,510.0762H319.1709v-7.9981h26.0762Zm0,11.3584H319.1709v-7.9991h26.0762Z" transform="translate(-179.5283 -292.811)"/><path d="M356.0566,527.3936v-9.4385h9.4385v9.4385a7.1679,7.1679,0,0,1-2.9194,5.9189,9.1215,9.1215,0,0,1-4.2793,1.6l-1.96-3.56a6.9782,6.9782,0,0,0,3.7193-1.3193,3.0781,3.0781,0,0,0,1.32-2.64Zm12.438,0v-9.4385h9.4385v9.4385a7.167,7.167,0,0,1-2.92,5.9189,9.1193,9.1193,0,0,1-4.2793,1.6l-1.9595-3.56a7.0512,7.0512,0,0,0,3.7193-1.3193,3.0793,3.0793,0,0,0,1.32-2.64Z" transform="translate(-179.5283 -292.811)"/><path d="M391.2949,515.9951a4.5523,4.5523,0,0,0,.96,2.6,5.0023,5.0023,0,0,0,3.999,1.6c2.5195,0,4-1.039,4-2.8388a2.316,2.316,0,0,0-1.48-2.28,42.6837,42.6837,0,0,0-5.4389-1.4395c-4.1592-.92-5.2393-1.2793-6.7188-2.2392a9.741,9.741,0,0,1-4.3594-8.4385c0-6.6,5.2393-10.5986,13.8375-10.5986a17.7714,17.7714,0,0,1,8.7187,2.08,10.3317,10.3317,0,0,1,3.959,4.3193,13.6564,13.6564,0,0,1,1.12,3.4394l-10.1982,1.0791a3.5692,3.5692,0,0,0-.76-1.9189,4.1266,4.1266,0,0,0-3.12-1.16c-2.12,0-3.5591.96-3.5591,2.44,0,.96.64,1.68,1.8393,2.04.68.1993,1.88.4795,6.6792,1.4795,6.5586,1.52,9.7188,4.959,9.7188,10.7578a10.3155,10.3155,0,0,1-5,9.2784c-2.08,1.24-5.7588,2.04-9.478,2.04-3.8794,0-7.5191-.88-9.7984-2.3994a9.7561,9.7561,0,0,1-3.8393-4.8,15.0982,15.0982,0,0,1-.92-4.1192Z" transform="translate(-179.5283 -292.811)"/><path d="M424.6543,493.2393a42.3722,42.3722,0,0,0-.32,6.3994v21.3564a44.4494,44.4494,0,0,0,.32,6.3985H414.1758a44.4494,44.4494,0,0,0,.32-6.3985V499.6387a36.7889,36.7889,0,0,0-.32-6.3994Z" transform="translate(-179.5283 -292.811)"/><path d="M460.9307,515.7559c-.88,3.999-1.84,6.039-3.76,8.1181-2.6,2.88-6.4785,4.3594-11.4385,4.3594-10.8779,0-17.5166-6.7988-17.5166-18.0371,0-11.1182,6.5586-17.7568,17.5567-17.7568,5.1191,0,9.3984,1.92,12.1181,5.4394a13.0277,13.0277,0,0,1,2.6,6.1182l-9.8379,1.8a5.8557,5.8557,0,0,0-1.32-3.1592,5.1743,5.1743,0,0,0-4.039-2c-4.56,0-7.0391,3.3594-7.0391,9.5185,0,3.52.88,6.2793,2.5195,7.919a6.4856,6.4856,0,0,0,4.4,1.8,5.6894,5.6894,0,0,0,4.039-1.5195,5.4922,5.4922,0,0,0,1.76-3.96Z" transform="translate(-179.5283 -292.811)"/><path d="M485.9316,527.3936a50.4508,50.4508,0,0,0-2.88-5.5987l-4.8789-8.7988-3.919,3.999v4a54.0973,54.0973,0,0,0,.3193,6.3985H464.2949a52.5672,52.5672,0,0,0,.32-6.3985V499.6387a51.3214,51.3214,0,0,0-.32-6.3994h10.2783a50.7233,50.7233,0,0,0-.3193,6.3994v5.5986l6.3984-7.1191a30.4415,30.4415,0,0,0,3.72-4.8789H497.17c-2.3594,2.3593-3.84,3.84-4.4394,4.4795l-8.2383,8.7988,9.3183,14.4775c2.1993,3.3994,2.879,4.3985,4.3995,6.3985Z" transform="translate(-179.5283 -292.811)"/><path d="M500.6152,500.0781a7.2966,7.2966,0,0,1,2.92-5.959,8.7258,8.7258,0,0,1,4.2793-1.56l1.96,3.56a7.0524,7.0524,0,0,0-3.72,1.3194,3.0765,3.0765,0,0,0-1.3193,2.64h5.3183v9.4385h-9.4385Zm12.4385,0a7.2985,7.2985,0,0,1,2.919-5.959,8.7258,8.7258,0,0,1,4.2793-1.56l1.96,3.56a6.66,6.66,0,0,0-3.72,1.3194,3.081,3.081,0,0,0-1.3193,2.64h5.3193v9.4385h-9.4385Z" transform="translate(-179.5283 -292.811)"/></svg>